<svg width="126" height="26" viewBox="0 0 126 26" fill="none" xmlns="http://www.w3.org/2000/svg">
<path d="M25.7801 15.5732C24.2306 14.7059 21.9308 13.9652 19.8356 13.4293C19.6991 13.9263 19.5627 14.4038 19.436 14.8326C21.4435 15.3491 23.6264 16.041 25.059 16.8498C26.9982 17.9413 27.6804 20.4068 26.5889 22.346C25.4975 24.2853 23.032 24.9675 21.0927 23.876C19.1242 22.7651 16.6197 20.3288 14.9338 18.5747C16.0545 18.3798 16.9705 17.6002 17.3506 16.5574C17.3506 16.5574 19.8843 9.51173 19.8843 5.49674C19.8843 2.45626 17.4188 0.000488281 14.3881 0.000488281C11.3573 0.000488281 8.89181 2.466 8.89181 5.49674C8.89181 7.27035 9.38881 9.63841 9.93454 11.7336C10.4413 11.6069 10.9188 11.49 11.3573 11.3925C10.8213 9.39478 10.3536 7.14366 10.3536 5.49674C10.3536 3.27485 12.1662 1.46226 14.3881 1.46226C16.6099 1.46226 18.4225 3.27485 18.4225 5.49674C18.4225 7.71862 17.5357 11.1392 16.8243 13.4585C16.0935 12.5717 14.9338 12.1624 13.8326 12.3573C13.8326 12.3573 6.47502 13.7216 3.00575 15.7486C0.384317 17.2786 -0.50249 20.6504 1.02749 23.2718C2.55748 25.8933 5.92929 26.7801 8.55073 25.2501C10.0807 24.3535 11.8738 22.7359 13.4038 21.2059C13.0432 20.8356 12.7021 20.475 12.3903 20.1534C10.9285 21.6249 9.23289 23.1646 7.8101 23.993C5.89031 25.1137 3.41505 24.4607 2.29436 22.541C1.17367 20.6212 1.82659 18.1459 3.74638 17.0252C5.69541 15.885 9.06722 14.9495 11.4255 14.3843C11.026 15.466 11.2599 16.6646 11.981 17.5222C11.981 17.5222 16.8731 23.1841 20.3716 25.1624C23.0125 26.6534 26.3648 25.7179 27.8558 23.0769C29.3468 20.436 28.4113 17.0837 25.7704 15.5927L25.7801 15.5732ZM14.3881 13.7606C15.3236 13.7606 16.0837 14.5207 16.0837 15.4562C16.0837 16.3918 15.3236 17.1519 14.3881 17.1519C13.4525 17.1519 12.6924 16.3918 12.6924 15.4562C12.6924 14.5207 13.4525 13.7606 14.3881 13.7606Z" fill="#01092D"/>
<path d="M38.8717 18V8.2H42.9037C43.7717 8.2 44.5137 8.34 45.1297 8.62C45.755 8.9 46.2357 9.30133 46.5717 9.824C46.9077 10.3467 47.0757 10.9673 47.0757 11.686C47.0757 12.4047 46.9077 13.0253 46.5717 13.548C46.2357 14.0707 45.755 14.472 45.1297 14.752C44.5137 15.032 43.7717 15.172 42.9037 15.172H39.8797L40.6917 14.318V18H38.8717ZM40.6917 14.514L39.8797 13.632H42.8197C43.6223 13.632 44.2243 13.464 44.6257 13.128C45.0363 12.7827 45.2417 12.302 45.2417 11.686C45.2417 11.0607 45.0363 10.58 44.6257 10.244C44.2243 9.908 43.6223 9.74 42.8197 9.74H39.8797L40.6917 8.844V14.514ZM48.8931 18V8.2H52.9251C53.7931 8.2 54.5351 8.34 55.1511 8.62C55.7765 8.9 56.2571 9.30133 56.5931 9.824C56.9291 10.3467 57.0971 10.9673 57.0971 11.686C57.0971 12.4047 56.9291 13.0253 56.5931 13.548C56.2571 14.0613 55.7765 14.458 55.1511 14.738C54.5351 15.0087 53.7931 15.144 52.9251 15.144H49.9011L50.7131 14.318V18H48.8931ZM55.3051 18L52.8271 14.444H54.7731L57.2651 18H55.3051ZM50.7131 14.514L49.9011 13.646H52.8411C53.6438 13.646 54.2458 13.4733 54.6471 13.128C55.0578 12.7827 55.2631 12.302 55.2631 11.686C55.2631 11.0607 55.0578 10.58 54.6471 10.244C54.2458 9.908 53.6438 9.74 52.8411 9.74H49.9011L50.7131 8.844V14.514ZM63.7254 18.14C62.96 18.14 62.2554 18.014 61.6114 17.762C60.9674 17.51 60.4074 17.16 59.9314 16.712C59.4554 16.2547 59.0867 15.7227 58.8254 15.116C58.564 14.5 58.4334 13.828 58.4334 13.1C58.4334 12.372 58.564 11.7047 58.8254 11.098C59.0867 10.482 59.4554 9.95 59.9314 9.502C60.4074 9.04467 60.9674 8.69 61.6114 8.438C62.2554 8.186 62.9554 8.06 63.7114 8.06C64.4767 8.06 65.1767 8.186 65.8114 8.438C66.4554 8.69 67.0154 9.04467 67.4914 9.502C67.9674 9.95 68.3361 10.482 68.5974 11.098C68.8587 11.7047 68.9894 12.372 68.9894 13.1C68.9894 13.828 68.8587 14.5 68.5974 15.116C68.3361 15.732 67.9674 16.264 67.4914 16.712C67.0154 17.16 66.4554 17.51 65.8114 17.762C65.1767 18.014 64.4814 18.14 63.7254 18.14ZM63.7114 16.544C64.206 16.544 64.6634 16.46 65.0834 16.292C65.5034 16.124 65.8674 15.886 66.1754 15.578C66.4834 15.2607 66.7214 14.8967 66.8894 14.486C67.0667 14.066 67.1554 13.604 67.1554 13.1C67.1554 12.596 67.0667 12.1387 66.8894 11.728C66.7214 11.308 66.4834 10.944 66.1754 10.636C65.8674 10.3187 65.5034 10.076 65.0834 9.908C64.6634 9.74 64.206 9.656 63.7114 9.656C63.2167 9.656 62.7594 9.74 62.3394 9.908C61.9287 10.076 61.5647 10.3187 61.2474 10.636C60.9394 10.944 60.6967 11.308 60.5194 11.728C60.3514 12.1387 60.2674 12.596 60.2674 13.1C60.2674 13.5947 60.3514 14.052 60.5194 14.472C60.6967 14.892 60.9394 15.2607 61.2474 15.578C61.5554 15.886 61.9194 16.124 62.3394 16.292C62.7594 16.46 63.2167 16.544 63.7114 16.544ZM70.9185 18V8.2H74.9505C75.8185 8.2 76.5605 8.34 77.1765 8.62C77.8019 8.9 78.2825 9.30133 78.6185 9.824C78.9545 10.3467 79.1225 10.9673 79.1225 11.686C79.1225 12.4047 78.9545 13.0253 78.6185 13.548C78.2825 14.0707 77.8019 14.472 77.1765 14.752C76.5605 15.032 75.8185 15.172 74.9505 15.172H71.9265L72.7385 14.318V18H70.9185ZM72.7385 14.514L71.9265 13.632H74.8665C75.6692 13.632 76.2712 13.464 76.6725 13.128C77.0832 12.7827 77.2885 12.302 77.2885 11.686C77.2885 11.0607 77.0832 10.58 76.6725 10.244C76.2712 9.908 75.6692 9.74 74.8665 9.74H71.9265L72.7385 8.844V14.514ZM82.62 12.274H87.492V13.772H82.62V12.274ZM82.76 16.474H88.29V18H80.94V8.2H88.094V9.726H82.76V16.474ZM90.3189 18V8.2H92.1389V16.46H97.2629V18H90.3189ZM98.6998 18V8.2H100.52V16.46H105.644V18H98.6998ZM108.761 12.274H113.633V13.772H108.761V12.274ZM108.901 16.474H114.431V18H107.081V8.2H114.235V9.726H108.901V16.474ZM116.46 18V8.2H120.492C121.36 8.2 122.102 8.34 122.718 8.62C123.343 8.9 123.824 9.30133 124.16 9.824C124.496 10.3467 124.664 10.9673 124.664 11.686C124.664 12.4047 124.496 13.0253 124.16 13.548C123.824 14.0613 123.343 14.458 122.718 14.738C122.102 15.0087 121.36 15.144 120.492 15.144H117.468L118.28 14.318V18H116.46ZM122.872 18L120.394 14.444H122.34L124.832 18H122.872ZM118.28 14.514L117.468 13.646H120.408C121.21 13.646 121.812 13.4733 122.214 13.128C122.624 12.7827 122.83 12.302 122.83 11.686C122.83 11.0607 122.624 10.58 122.214 10.244C121.812 9.908 121.21 9.74 120.408 9.74H117.468L118.28 8.844V14.514Z" fill="#01092D"/>
</svg>
