<svg width="29" height="26" viewBox="0 0 29 26" fill="none" xmlns="http://www.w3.org/2000/svg">
<path d="M25.5023 15.5727C23.9528 14.7054 21.6529 13.9648 19.5577 13.4288C19.4213 13.9258 19.2849 14.4033 19.1582 14.8321C21.1657 15.3486 23.3486 16.0405 24.7811 16.8493C26.7204 17.9408 27.4026 20.4063 26.3111 22.3456C25.2197 24.2848 22.7541 24.967 20.8149 23.8755C18.8464 22.7646 16.3419 20.3283 14.6559 18.5742C15.7766 18.3793 16.6927 17.5997 17.0727 16.557C17.0727 16.557 19.6065 9.51124 19.6065 5.49625C19.6065 2.45577 17.141 0 14.1102 0C11.0795 0 8.61398 2.46552 8.61398 5.49625C8.61398 7.26986 9.11098 9.63792 9.6567 11.7331C10.1634 11.6064 10.641 11.4895 11.0795 11.392C10.5435 9.39429 10.0757 7.14317 10.0757 5.49625C10.0757 3.27436 11.8883 1.46177 14.1102 1.46177C16.3321 1.46177 18.1447 3.27436 18.1447 5.49625C18.1447 7.71814 17.2579 11.1387 16.5465 13.458C15.8156 12.5712 14.6559 12.1619 13.5548 12.3568C13.5548 12.3568 6.19719 13.7211 2.72792 15.7481C0.106485 17.2781 -0.780322 20.6499 0.749662 23.2713C2.27965 25.8928 5.65146 26.7796 8.2729 25.2496C9.80288 24.3531 11.596 22.7354 13.126 21.2054C12.7654 20.8351 12.4243 20.4745 12.1125 20.1529C10.6507 21.6244 8.95505 23.1642 7.53227 23.9925C5.61248 25.1132 3.13722 24.4603 2.01653 22.5405C0.895839 20.6207 1.54876 18.1454 3.46855 17.0247C5.41757 15.8845 8.78939 14.949 11.1477 14.3838C10.7482 15.4655 10.982 16.6642 11.7032 17.5217C11.7032 17.5217 16.5952 23.1836 20.0937 25.1619C22.7347 26.6529 26.087 25.7174 27.578 23.0764C29.069 20.4355 28.1335 17.0832 25.4925 15.5922L25.5023 15.5727ZM14.1102 13.7601C15.0458 13.7601 15.8059 14.5202 15.8059 15.4558C15.8059 16.3913 15.0458 17.1514 14.1102 17.1514C13.1747 17.1514 12.4146 16.3913 12.4146 15.4558C12.4146 14.5202 13.1747 13.7601 14.1102 13.7601Z" fill="#06194E"/>
</svg>
