<svg width="25" height="24" viewBox="0 0 25 24" fill="none" xmlns="http://www.w3.org/2000/svg">
<path d="M12.6665 0C13.7992 2.04771e-05 14.7209 0.897347 14.7651 2.01953C18.7358 2.83392 21.8759 5.94938 22.731 9.90527C23.8138 9.99125 24.6665 10.8952 24.6665 12C24.6664 13.0935 23.8315 13.9911 22.7642 14.0928C21.9573 18.1248 18.7819 21.3122 14.7554 22.1338C14.6377 23.1836 13.7473 23.9998 12.6665 24C11.5796 24 10.6855 23.1759 10.5747 22.1182C6.58237 21.274 3.43853 18.1025 2.63525 14.0957C1.53674 14.026 0.665606 13.1166 0.665527 12C0.665527 10.8722 1.55418 9.95414 2.66846 9.90137C3.51991 5.97002 6.62886 2.87098 10.5659 2.03516C10.6023 0.905436 11.5275 0 12.6665 0ZM14.7026 2.62207C14.4714 3.53196 13.6483 4.20604 12.6665 4.20605C11.6896 4.20605 10.871 3.53906 10.6343 2.63672C6.97835 3.43639 4.09156 6.31094 3.27295 9.95996C4.19095 10.1858 4.87256 11.0122 4.87256 12C4.87249 12.9998 4.1746 13.8341 3.23975 14.0479C4.01112 17.7538 6.91225 20.6856 10.6001 21.5059C10.7833 20.5314 11.6382 19.7939 12.6665 19.7939C13.6994 19.794 14.5575 20.5391 14.7349 21.5215C18.4483 20.722 21.3757 17.7832 22.1567 14.0625C21.1899 13.873 20.4597 13.0222 20.4595 12C20.4595 10.9893 21.1733 10.1454 22.1235 9.94336C21.2953 6.28094 18.383 3.40111 14.7026 2.62207ZM12.6997 7.56152C15.1925 7.56152 17.2133 9.58244 17.2134 12.0752C17.2134 14.568 15.1925 16.5889 12.6997 16.5889C10.207 16.5888 8.18604 14.5679 8.18604 12.0752C8.1861 9.5825 10.207 7.56161 12.6997 7.56152Z" fill="#297BFF"/>
</svg>
