<svg width="25" height="24" viewBox="0 0 25 24" fill="none" xmlns="http://www.w3.org/2000/svg">
<path fill-rule="evenodd" clip-rule="evenodd" d="M22.7694 0.0809044C22.9124 0.162937 23.0143 0.298873 23.053 0.459415L24.1792 5.12113C24.8765 8.0063 23.1456 11.0155 20.3014 11.8534C19.0393 12.2249 17.7701 12.1077 16.6849 11.6109C15.2411 13.2421 14.4337 15.369 14.4337 17.5839V23.4C14.4337 23.7316 14.1653 24 13.8337 24C13.502 24 13.2337 23.7316 13.2337 23.4V19.4484L8.18405 14.3988C7.39772 14.9941 6.40162 15.3316 5.30944 15.2976C2.7102 15.2156 0.545717 13.0523 0.463817 10.4532L0.333739 6.31888C0.329052 6.15365 0.392332 5.99311 0.509522 5.8759C0.626709 5.75871 0.787257 5.69543 0.952504 5.70012L5.08682 5.8302C7.68606 5.91223 9.84934 8.07669 9.93124 10.6758C9.96523 11.768 9.62773 12.7641 9.03241 13.5504L13.2336 17.7516V17.5841C13.2336 15.1512 14.095 12.805 15.6477 10.9747C14.7758 10.2857 14.1184 9.30013 13.8313 8.10949C13.134 5.22432 14.8649 2.21507 17.7091 1.37717L22.2994 0.0248251C22.4576 -0.02205 22.6276 -0.0022987 22.7694 0.0809044ZM17.3976 10.6091C18.1816 10.9126 19.0734 10.9642 19.9628 10.7029C22.1906 10.0466 23.5605 7.66897 23.0133 5.40367L22.0347 1.35366L18.048 2.52906C15.8203 3.18531 14.4504 5.56177 14.9976 7.82707C15.2168 8.73176 15.7066 9.47942 16.3594 10.0079L17.9648 7.22119L17.284 4.74853C17.1961 4.42861 17.3836 4.09812 17.7035 4.01025C18.0223 3.92236 18.3527 4.10986 18.4406 4.42978L18.8063 5.75869L20.1434 3.43836C20.3086 3.15125 20.6754 3.0528 20.9625 3.21805C21.2496 3.38328 21.3481 3.75007 21.1828 4.0372L20.584 5.07784L21.2356 4.90792C21.5567 4.82472 21.8848 5.0169 21.968 5.33683C22.0512 5.65792 21.859 5.98606 21.5391 6.06925L19.7437 6.53683L18.941 7.93019L19.5938 7.76026C19.9137 7.67706 20.2418 7.86925 20.325 8.18918C20.4094 8.51027 20.2172 8.83841 19.8961 8.9216L18.1008 9.38918L17.3976 10.6091ZM8.17256 12.6904C8.54756 12.1372 8.75498 11.4576 8.73155 10.7134C8.67061 8.74703 7.01473 7.09243 5.04843 7.03033L1.55402 6.92017L1.66418 10.4146C1.72629 12.381 3.38099 14.0368 5.34729 14.0977C6.09145 14.1211 6.77113 13.9137 7.32424 13.5387L5.4375 11.652H3.25898C2.9285 11.652 2.65898 11.3836 2.65898 11.052C2.65898 10.7203 2.92851 10.452 3.25898 10.452H4.2375L2.73398 8.94845C2.4996 8.71408 2.4996 8.33438 2.73398 8.10002C2.96836 7.86566 3.34805 7.86564 3.58241 8.10002L4.1754 8.693V8.32151C4.1754 7.99103 4.44493 7.72151 4.7754 7.72151C5.10705 7.72151 5.3754 7.99104 5.3754 8.32151V9.893L6.19807 10.7157V10.3442C6.19807 10.0125 6.46643 9.74417 6.79807 9.74417C7.12971 9.74417 7.39807 10.0125 7.39807 10.3442V11.9157L8.17256 12.6904Z" fill="#297BFF"/>
</svg>
